<?xml version="1.0" encoding="utf-8"?>
<!-- Generator: Adobe Illustrator 16.0.0, SVG Export Plug-In . SVG Version: 6.00 Build 0)  -->
<!DOCTYPE svg PUBLIC "-//W3C//DTD SVG 1.1//EN" "http://www.w3.org/Graphics/SVG/1.1/DTD/svg11.dtd">
<svg version="1.1" xmlns="http://www.w3.org/2000/svg" xmlns:xlink="http://www.w3.org/1999/xlink" x="0px" y="0px" width="400px"
	 height="400px" viewBox="0 0 400 400" enable-background="new 0 0 400 400" xml:space="preserve">
<g id="Layer_2">
	<g id="Layer_3" display="none">
		
			<rect x="-47" y="-28" display="inline" fill="#364B5E" stroke="#FFFFFF" stroke-width="24" stroke-miterlimit="10" width="580" height="482"/>
	</g>
	<polygon fill="#374C5E" stroke="#253340" stroke-width="13" stroke-miterlimit="10" points="198.026,6.707 18.894,69.668 
		44.207,309.116 199.974,394.786 351.847,309.116 381.051,69.668 	"/>
	<path fill="#FFFFFF" d="M291.96,209.624c0.435-10.432-19.084-25.151-15.616-39.466c3.472-14.316,3.038-27.783-4.771-46.606
		c0,0,12.581,4.894,11.279-4.804c-1.302-9.695-15.181-19.892-25.591-26.379c-4.679-2.915-17.505-9.206-34.676-12.888l-3.232,8.788
		l0.001,0l0.008-0.022c0.694,0.308,10.548,4.729,14.611,8.886l-0.012,0.017l3.278-4.528c0,0,19.209,10.351,25.061,33.386
		l-5.083,1.734c-0.018-0.057-0.029-0.094-0.04-0.129c0.429,1.383,5.801,19.515-0.3,39.544l-13.958-4.739
		c-0.74,1.906-7.846,19.631-17.184,22.746l-8.805-11.645c-4.227,3.305-13.88,6.224-18.537,4.856l-0.01-0.425
		c-0.083-0.007-0.166-0.02-0.249-0.031l0.259,32.092c-18.511,1.914-40.625-9.298-51.216-24.732l-11.572,8.79
		C122.443,178.167,120.436,159,120.299,148h15.572c-0.006-12.209,4.768-28.118,11.492-36.873l12.161,8.585
		c-0.011,0.013-0.015,0.019-0.024,0.03c0,0,0,0,0,0c0.99-1.219,10.17-12.207,22.465-16.176l0.002,0.005
		c0.06-0.02,0.124-0.035,0.185-0.052l-9.219-24.364c-8.583,1.891-17.351,4.954-26.072,9.569
		c-70.056,37.333-34.482,110.203-12.793,127.556c21.688,17.351,11.713,52.72,0,84.72h94.181c1.303-6,0.167,2.955,4.558-20.957
		c4.393-23.91,21.311-15.026,34.647-15.841c13.338-0.813,11.225-10.085,11.062-20.494c6.507-2.929,6.507-6.021,2.166-9.761
		c5.642-5.205,4.773-5.21,1.737-10.31c-3.036-5.098-0.868-7.482-0.868-7.482S290.662,214.383,291.96,209.624z"/>
	<path fill="#FFFFFF" stroke="#FFFFFF" stroke-width="2" stroke-miterlimit="10" d="M173.004,79.344
		c18.309-5.281,32.246-5.51,47.741,0.251c0.575,0.214,1.086,0.456,1.514,0.772l3.179-7.18c-25.709-12.521-55.152-1.027-55.152-1.027
		L173.004,79.344"/>
	<circle fill="#FFFFFF" stroke="#FFFFFF" stroke-width="2" stroke-miterlimit="10" cx="197.556" cy="140.25" r="14.5"/>
</g>
<g id="Layer_1" display="none">
	<polygon fill="#57655F" points="18.894,69.668 198.026,6.707 381.051,69.668 351.847,309.116 199.974,394.786 44.207,309.116 	"/>
	<polygon fill="#6E7874" points="200,394.104 200.608,394.786 352.162,309.116 381.844,69.668 200,6.95 	"/>
	<path display="inline" fill="#FFFFFF" d="M218.011,172.557c-0.164,0.178-0.361,0.355-0.56,0.533
		C217.655,172.913,217.847,172.735,218.011,172.557z"/>
	<path display="inline" fill="#FFFFFF" d="M205.547,136.795l0.815-1.119l-0.164-0.185l27.774-38.358
		c-4.063-4.157-13.917-8.578-14.611-8.886L202.901,133h-0.066l-1.06,2.877L205.547,136.795z"/>
	<path display="inline" fill="#FFFFFF" d="M237.239,92.622l-31.041,42.87l0.164,0.185l0,0l6.084,6.865l44.701-15.023
		c0,0,0.012,0.038,0.029,0.094c0.011,0.036,0.022,0.073,0.04,0.129l5.083-1.734C256.448,102.973,237.239,92.622,237.239,92.622z"/>
	<polygon display="inline" fill="#FFFFFF" points="206.198,135.492 206.362,135.677 206.362,135.677 	"/>
	<path display="inline" fill="#FFFFFF" d="M257.177,127.613c-0.018-0.056-0.029-0.094-0.029-0.094l-44.701,15.023l-0.446,0.15v9.228
		l0.57,0.194l0.142-0.194l30.275,10.322c0,0-0.025,0.067-0.068,0.176l13.958,4.739C262.978,147.127,257.605,128.996,257.177,127.613
		z"/>
	<path display="inline" fill="#FFFFFF" d="M257.177,127.613c-0.018-0.056-0.029-0.094-0.029-0.094S257.159,127.557,257.177,127.613z
		"/>
	<polygon display="inline" fill="#FFFFFF" points="257.147,127.519 212.446,142.542 212.446,142.542 	"/>
	<path display="inline" fill="#FFFFFF" d="M242.987,162.242l-30.275-10.322l-5.94,8.153l1.314-0.321l9.925,12.806
		c-0.164,0.178-0.355,0.356-0.56,0.533c-0.162,0.144-0.338,0.287-0.521,0.429l8.805,11.645c9.338-3.115,16.443-20.839,17.184-22.746
		l0,0C242.962,162.309,242.987,162.242,242.987,162.242z"/>
	<path display="inline" fill="#FFFFFF" d="M242.919,162.418L242.919,162.418c0.043-0.109,0.068-0.176,0.068-0.176
		S242.962,162.309,242.919,162.418z"/>
	<path display="inline" fill="#FFFFFF" d="M206.771,160.073L206.771,160.073l-8.764,2.143l0.386,16.159
		c4.657,1.368,14.31-1.551,18.537-4.856c0.183-0.143,0.354-0.286,0.521-0.429c0.198-0.177,0.396-0.354,0.56-0.533l-9.925-12.806
		L206.771,160.073z"/>
	<path display="inline" fill="#FFFFFF" d="M216.931,173.519L216.931,173.519c0.183-0.143,0.358-0.285,0.521-0.429
		C217.285,173.233,217.113,173.376,216.931,173.519z"/>
	<polygon display="inline" fill="#FFFFFF" points="208.086,159.751 206.771,160.073 206.771,160.073 	"/>
	<path display="inline" fill="#FFFFFF" d="M147.178,185.279c10.591,15.434,32.705,26.646,51.216,24.732l-0.386-47.794l-12.753-5.859
		L147.178,185.279z"/>
	<path display="inline" fill="#FFFFFF" d="M185.255,156.357L185.255,156.357l0.345-0.262l-2.255-7.291l-0.319,0.361l-47.146,0.291
		c-0.016-0.475-0.009-0.969-0.009-1.457h-15.572c0.137,11,2.145,30.167,15.308,46.068l11.572-8.79l0,0L185.255,156.357z"/>
	
		<rect x="142.309" y="170.818" transform="matrix(0.7963 -0.6049 0.6049 0.7963 -69.468 135.3278)" display="inline" fill="#FFFFFF" width="47.815" height="0"/>
	<path display="inline" fill="#FFFFFF" d="M135.88,149.457l47.146-0.291l0.319-0.362v0l6.674-7.564l-4.108-2.9l-0.311,0.14
		l-26.193-18.622c0,0,0.041-0.051,0.117-0.146l-12.161-8.585c-6.724,8.754-11.498,24.664-11.492,36.873l0,0
		C135.871,148.488,135.864,148.981,135.88,149.457z"/>
	<path display="inline" fill="#FFFFFF" d="M135.871,148L135.871,148c0,0.488-0.006,0.981,0.009,1.457
		C135.864,148.981,135.871,148.488,135.871,148z"/>
	<polygon display="inline" fill="#FFFFFF" points="183.026,149.166 183.345,148.805 183.345,148.804 	"/>
	<path display="inline" fill="#FFFFFF" d="M185.911,138.34L185.911,138.34l7.974-3.591l-11.92-31.183
		c-13.024,4.205-22.558,16.292-22.558,16.292L185.6,138.48L185.911,138.34z"/>
	<polygon display="inline" fill="#FFFFFF" points="185.6,138.48 185.911,138.34 185.911,138.34 	"/>
	<path display="inline" fill="#505C57" d="M233.973,97.133l-27.774,38.358l0.164,0.185L234.25,97.41
		C234.166,97.318,234.062,97.225,233.973,97.133z"/>
	<path display="inline" fill="#505C57" d="M219.361,88.247c-0.025-0.012-0.042-0.019-0.042-0.019L202.835,133h0.066L219.361,88.247z
		"/>
	<path display="inline" fill="#505C57" d="M257.147,127.519l-44.701,15.023l0.323,0.365l44.447-15.165
		C257.172,127.596,257.147,127.519,257.147,127.519z"/>
	<path display="inline" fill="#505C57" d="M212.712,151.919l-0.142,0.194l30.349,10.305c0.043-0.109,0.068-0.176,0.068-0.176
		L212.712,151.919z"/>
	<path display="inline" fill="#505C57" d="M206.771,160.073l-0.004,0.005l10.163,13.441c0.407-0.318,0.783-0.64,1.08-0.962
		l-9.925-12.806L206.771,160.073z"/>
	<path display="inline" fill="#505C57" d="M184.692,156.099l-37.596,29.065c0.026,0.039,0.055,0.077,0.082,0.115l38.077-28.921
		L184.692,156.099z"/>
	<path display="inline" fill="#505C57" d="M183.026,149.166l0.319-0.362L183.096,148h-47.226c0,0.488-0.006,0.981,0.009,1.457
		L183.026,149.166z"/>
	<path display="inline" fill="#505C57" d="M185.6,138.48l0.311-0.14l-26.387-18.627c-0.077,0.094-0.117,0.146-0.117,0.146
		L185.6,138.48z"/>
	<path fill="#FFFFFF" d="M202.901,133l19.684-53.519c-14.274-3.061-31.551-4.313-49.652-0.326L193.306,133H202.901z"/>
	<path display="inline" fill="#FFFFFF" d="M198.021,163.776c0.008,0,0.016-0.001,0.024-0.001l-0.037-1.559L198.021,163.776z"/>
	<polygon display="inline" fill="#FFFFFF" points="208.219,159.923 208.219,159.923 208.086,159.751 	"/>
	<path display="inline" fill="#FFFFFF" d="M212,151.919v-9.228l0.446-0.15l-6.084-6.865l-0.815,1.119l-3.771-0.918l1.028-2.793
		c-0.08-0.026-0.158-0.06-0.239-0.084h-9.258l-0.002-0.007c-0.027,0.008-0.053,0.02-0.08,0.028l0.661,1.728l-7.974,3.591l4.108,2.9
		l-6.674,7.564l2.255,7.291l-0.345,0.262l12.753,5.859l8.764-2.144l5.94-8.153l-0.142,0.194L212,151.919z"/>
	<path display="inline" fill="#FFFFFF" d="M205.547,136.795l0.815-1.119l-0.164-0.185l0.397-0.549
		c-1.167-0.776-2.434-1.412-3.792-1.858l-1.028,2.793L205.547,136.795z"/>
	<path display="inline" fill="#FFFFFF" d="M206.596,134.942l-0.397,0.549l0.164,0.185l0,0l6.084,6.865l0.188-0.063
		C211.459,139.373,209.319,136.754,206.596,134.942z"/>
	<polygon display="inline" fill="#FFFFFF" points="206.198,135.492 206.596,134.942 206.596,134.942 	"/>
	<polygon display="inline" fill="#FFFFFF" points="206.198,135.492 206.362,135.677 206.362,135.677 	"/>
	<path display="inline" fill="#FFFFFF" d="M212.446,142.542l-0.446,0.15v9.228l0.57,0.194l0.142-0.194l0.404,0.138
		c0.341-1.285,0.542-2.626,0.542-4.02c0-1.959-0.369-3.829-1.023-5.559L212.446,142.542L212.446,142.542z"/>
	<rect x="212.541" y="142.411" display="inline" fill="#FFFFFF" width="0" height="0.199"/>
	<path display="inline" fill="#FFFFFF" d="M206.771,160.073l1.314-0.321l0.133,0.171c2.351-2.04,4.076-4.768,4.897-7.866
		l-0.404-0.138L206.771,160.073z"/>
	<polygon display="inline" fill="#FFFFFF" points="212.712,151.919 213.116,152.057 213.116,152.057 	"/>
	<path display="inline" fill="#FFFFFF" d="M206.771,160.073l-8.764,2.144l0.037,1.559c3.893-0.03,7.441-1.482,10.174-3.852
		l-0.133-0.171L206.771,160.073L206.771,160.073z"/>
	<polygon display="inline" fill="#FFFFFF" points="206.771,160.073 208.086,159.751 206.771,160.073 	"/>
	<path display="inline" fill="#FFFFFF" d="M184.81,156.696c2.812,4.263,7.624,7.085,13.112,7.085c0.034,0,0.066-0.005,0.099-0.005
		l-0.013-1.56l-12.753-5.859L184.81,156.696z"/>
	<path display="inline" fill="#FFFFFF" d="M185.255,156.357l0.345-0.262l-2.255-7.291l-0.319,0.361l-0.785,0.005
		c0.198,2.771,1.124,5.334,2.569,7.525L185.255,156.357L185.255,156.357z"/>
	<rect x="185.032" y="156.247" display="inline" fill="#FFFFFF" width="0" height="0.559"/>
	<path display="inline" fill="#FFFFFF" d="M183.345,148.804L183.345,148.804l6.674-7.564l-4.108-2.9l-0.311,0.14l-0.109-0.078
		c-2.069,2.663-3.307,6.002-3.307,9.635c0,0.382,0.03,0.757,0.057,1.133l0.785-0.005L183.345,148.804z"/>
	<polygon display="inline" fill="#FFFFFF" points="183.026,149.166 183.345,148.805 183.345,148.804 	"/>
	<polygon display="inline" fill="#FFFFFF" points="183.026,149.166 182.241,149.171 182.241,149.171 	"/>
	<path display="inline" fill="#FFFFFF" d="M185.911,138.34L185.911,138.34l7.974-3.591l-0.661-1.728
		c-3.101,0.969-5.786,2.874-7.733,5.381l0.109,0.078L185.911,138.34z"/>
	<polygon display="inline" fill="#FFFFFF" points="185.6,138.48 185.911,138.34 185.911,138.34 	"/>
	<polygon display="inline" fill="#FFFFFF" points="185.6,138.48 185.49,138.402 185.49,138.402 	"/>
	<path display="inline" fill="none" stroke="#FFFFFF" stroke-width="8" stroke-miterlimit="10" d="M218.011,172.557
		c-0.164,0.178-0.361,0.355-0.56,0.533C217.655,172.913,217.847,172.735,218.011,172.557z"/>
	<path display="inline" fill="none" stroke="#FFFFFF" stroke-width="8" stroke-miterlimit="10" d="M233.973,97.133
		c-4.063-4.157-13.917-8.578-14.611-8.886L202.901,133h-0.066l-1.06,2.877l3.771,0.918l0.815-1.119l-0.164-0.185L233.973,97.133z"/>
	<path display="inline" fill="none" stroke="#FFFFFF" stroke-width="8" stroke-miterlimit="10" d="M237.239,92.622l-31.041,42.87
		l0.164,0.185l0,0l6.084,6.865l44.701-15.023c0,0,0.012,0.038,0.029,0.094c0.011,0.036,0.022,0.073,0.04,0.129l5.083-1.734
		C256.448,102.973,237.239,92.622,237.239,92.622z"/>
	<polygon display="inline" fill="none" stroke="#FFFFFF" stroke-width="8" stroke-miterlimit="10" points="206.198,135.492 
		206.362,135.677 206.362,135.677 	"/>
	<path display="inline" fill="none" stroke="#FFFFFF" stroke-width="8" stroke-miterlimit="10" d="M257.177,127.613
		c-0.018-0.056-0.029-0.094-0.029-0.094l-44.701,15.023l-0.446,0.15v9.228l0.57,0.194l0.142-0.194l30.275,10.322
		c0,0-0.025,0.067-0.068,0.176l13.958,4.739C262.978,147.127,257.605,128.996,257.177,127.613z"/>
	<path display="inline" fill="none" stroke="#FFFFFF" stroke-width="8" stroke-miterlimit="10" d="M257.177,127.613
		c-0.018-0.056-0.029-0.094-0.029-0.094S257.159,127.557,257.177,127.613z"/>
	<polygon display="inline" fill="none" stroke="#FFFFFF" stroke-width="8" stroke-miterlimit="10" points="257.147,127.519 
		212.446,142.542 212.446,142.542 	"/>
	<path display="inline" fill="none" stroke="#FFFFFF" stroke-width="8" stroke-miterlimit="10" d="M242.987,162.242l-30.275-10.322
		l-5.94,8.153l1.314-0.321l9.925,12.806c-0.164,0.178-0.355,0.356-0.56,0.533c-0.162,0.144-0.338,0.287-0.521,0.429l8.805,11.645
		c9.338-3.115,16.443-20.839,17.184-22.746l0,0C242.962,162.309,242.987,162.242,242.987,162.242z"/>
	<path display="inline" fill="none" stroke="#FFFFFF" stroke-width="8" stroke-miterlimit="10" d="M242.919,162.418L242.919,162.418
		c0.043-0.109,0.068-0.176,0.068-0.176S242.962,162.309,242.919,162.418z"/>
	<path display="inline" fill="none" stroke="#FFFFFF" stroke-width="8" stroke-miterlimit="10" d="M206.771,160.073L206.771,160.073
		l-8.764,2.143l0.386,16.159c4.657,1.368,14.31-1.551,18.537-4.856c0.183-0.143,0.354-0.286,0.521-0.429
		c0.198-0.177,0.396-0.354,0.56-0.533l-9.925-12.806L206.771,160.073z"/>
	<polygon display="inline" fill="none" stroke="#FFFFFF" stroke-width="8" stroke-miterlimit="10" points="208.086,159.751 
		206.771,160.073 206.771,160.073 	"/>
	<path display="inline" fill="none" stroke="#FFFFFF" stroke-width="8" stroke-miterlimit="10" d="M216.931,173.519L216.931,173.519
		c0.183-0.143,0.358-0.285,0.521-0.429C217.285,173.233,217.113,173.376,216.931,173.519z"/>
	<path display="inline" fill="none" stroke="#FFFFFF" stroke-width="8" stroke-miterlimit="10" d="M147.178,185.279
		c10.591,15.434,32.705,26.646,51.216,24.732l-0.386-47.794l-12.753-5.859L147.178,185.279z"/>
	<path display="inline" fill="none" stroke="#FFFFFF" stroke-width="8" stroke-miterlimit="10" d="M185.255,156.357L185.255,156.357
		l0.345-0.262l-2.255-7.291l-0.319,0.361l-47.146,0.291c-0.016-0.475-0.009-0.969-0.009-1.457h-15.572
		c0.137,11,2.145,30.167,15.308,46.068l11.572-8.79l0,0L185.255,156.357z"/>
	
		<rect x="142.309" y="170.818" transform="matrix(0.7963 -0.6049 0.6049 0.7963 -69.468 135.3278)" display="inline" fill="none" stroke="#FFFFFF" stroke-width="8" stroke-miterlimit="10" width="47.815" height="0"/>
	<path display="inline" fill="none" stroke="#FFFFFF" stroke-width="8" stroke-miterlimit="10" d="M135.88,149.457l47.146-0.291
		l0.319-0.362v0l6.674-7.564l-4.108-2.9l-0.311,0.14l-26.193-18.622c0,0,0.041-0.051,0.117-0.146l-12.161-8.585
		c-6.724,8.754-11.498,24.664-11.492,36.873l0,0C135.871,148.488,135.864,148.981,135.88,149.457z"/>
	<polygon display="inline" fill="none" stroke="#FFFFFF" stroke-width="8" stroke-miterlimit="10" points="183.026,149.166 
		183.345,148.805 183.345,148.804 	"/>
	<path display="inline" fill="none" stroke="#FFFFFF" stroke-width="8" stroke-miterlimit="10" d="M135.871,148L135.871,148
		c0,0.488-0.006,0.981,0.009,1.457C135.864,148.981,135.871,148.488,135.871,148z"/>
	<path display="inline" fill="none" stroke="#FFFFFF" stroke-width="8" stroke-miterlimit="10" d="M185.911,138.34L185.911,138.34
		l7.974-3.591l-11.92-31.183c-13.024,4.205-22.558,16.292-22.558,16.292L185.6,138.48L185.911,138.34z"/>
	<polygon display="inline" fill="none" stroke="#FFFFFF" stroke-width="8" stroke-miterlimit="10" points="185.6,138.48 
		185.911,138.34 185.911,138.34 	"/>
</g>
</svg>
